<mxfile host="app.diagrams.net" modified="2021-11-11T01:21:51.408Z" agent="5.0 (Macintosh; Intel Mac OS X 10_15_7) AppleWebKit/537.36 (KHTML, like Gecko) Chrome/91.0.4472.114 Safari/537.36" etag="5BEOLIiOIpc4SW9BRYb2" version="15.7.0" type="github">
  <diagram id="C5RBs43oDa-KdzZeNtuy" name="Page-1">
    <mxGraphModel dx="1298" dy="667" grid="1" gridSize="10" guides="1" tooltips="1" connect="1" arrows="1" fold="1" page="1" pageScale="1" pageWidth="1200" pageHeight="1600" math="0" shadow="0">
      <root>
        <mxCell id="WIyWlLk6GJQsqaUBKTNV-0" />
        <mxCell id="WIyWlLk6GJQsqaUBKTNV-1" parent="WIyWlLk6GJQsqaUBKTNV-0" />
        <mxCell id="9cUkJG0n4awL6qod9hBZ-3" style="edgeStyle=orthogonalEdgeStyle;rounded=0;orthogonalLoop=1;jettySize=auto;html=1;exitX=0.5;exitY=0;exitDx=0;exitDy=0;entryX=0.5;entryY=1;entryDx=0;entryDy=0;endArrow=blockThin;endFill=0;" parent="WIyWlLk6GJQsqaUBKTNV-1" source="9cUkJG0n4awL6qod9hBZ-0" target="9cUkJG0n4awL6qod9hBZ-1" edge="1">
          <mxGeometry relative="1" as="geometry" />
        </mxCell>
        <mxCell id="9cUkJG0n4awL6qod9hBZ-0" value="StatelessElement" style="rounded=0;whiteSpace=wrap;html=1;" parent="WIyWlLk6GJQsqaUBKTNV-1" vertex="1">
          <mxGeometry x="20" y="410" width="120" height="60" as="geometry" />
        </mxCell>
        <mxCell id="9cUkJG0n4awL6qod9hBZ-4" style="edgeStyle=orthogonalEdgeStyle;rounded=0;orthogonalLoop=1;jettySize=auto;html=1;exitX=0.5;exitY=0;exitDx=0;exitDy=0;entryX=0.5;entryY=1;entryDx=0;entryDy=0;endArrow=blockThin;endFill=0;" parent="WIyWlLk6GJQsqaUBKTNV-1" source="9cUkJG0n4awL6qod9hBZ-1" target="9cUkJG0n4awL6qod9hBZ-2" edge="1">
          <mxGeometry relative="1" as="geometry" />
        </mxCell>
        <mxCell id="9cUkJG0n4awL6qod9hBZ-1" value="ComponentElement" style="rounded=0;whiteSpace=wrap;html=1;" parent="WIyWlLk6GJQsqaUBKTNV-1" vertex="1">
          <mxGeometry x="20" y="290" width="120" height="60" as="geometry" />
        </mxCell>
        <mxCell id="9cUkJG0n4awL6qod9hBZ-2" value="Element" style="rounded=0;whiteSpace=wrap;html=1;" parent="WIyWlLk6GJQsqaUBKTNV-1" vertex="1">
          <mxGeometry x="20" y="170" width="120" height="60" as="geometry" />
        </mxCell>
        <mxCell id="9cUkJG0n4awL6qod9hBZ-5" value="construct" style="text;html=1;strokeColor=none;fillColor=none;align=center;verticalAlign=middle;whiteSpace=wrap;rounded=0;" parent="WIyWlLk6GJQsqaUBKTNV-1" vertex="1">
          <mxGeometry x="225" y="490" width="60" height="30" as="geometry" />
        </mxCell>
        <mxCell id="9cUkJG0n4awL6qod9hBZ-14" style="edgeStyle=orthogonalEdgeStyle;rounded=0;orthogonalLoop=1;jettySize=auto;html=1;exitX=0.5;exitY=0;exitDx=0;exitDy=0;entryX=0.5;entryY=1;entryDx=0;entryDy=0;endArrow=openThin;endFill=0;" parent="WIyWlLk6GJQsqaUBKTNV-1" source="9cUkJG0n4awL6qod9hBZ-11" target="9cUkJG0n4awL6qod9hBZ-12" edge="1">
          <mxGeometry relative="1" as="geometry" />
        </mxCell>
        <mxCell id="9cUkJG0n4awL6qod9hBZ-16" value="widget" style="edgeLabel;html=1;align=center;verticalAlign=middle;resizable=0;points=[];" parent="9cUkJG0n4awL6qod9hBZ-14" vertex="1" connectable="0">
          <mxGeometry x="0.175" y="-4" relative="1" as="geometry">
            <mxPoint as="offset" />
          </mxGeometry>
        </mxCell>
        <mxCell id="9cUkJG0n4awL6qod9hBZ-11" value="constructor" style="rounded=1;whiteSpace=wrap;html=1;" parent="WIyWlLk6GJQsqaUBKTNV-1" vertex="1">
          <mxGeometry x="210" y="420" width="90" height="40" as="geometry" />
        </mxCell>
        <mxCell id="9cUkJG0n4awL6qod9hBZ-15" style="edgeStyle=orthogonalEdgeStyle;rounded=0;orthogonalLoop=1;jettySize=auto;html=1;exitX=0.5;exitY=0;exitDx=0;exitDy=0;entryX=0.5;entryY=1;entryDx=0;entryDy=0;endArrow=openThin;endFill=0;" parent="WIyWlLk6GJQsqaUBKTNV-1" source="9cUkJG0n4awL6qod9hBZ-12" target="9cUkJG0n4awL6qod9hBZ-13" edge="1">
          <mxGeometry relative="1" as="geometry" />
        </mxCell>
        <mxCell id="9cUkJG0n4awL6qod9hBZ-17" value="widget" style="edgeLabel;html=1;align=center;verticalAlign=middle;resizable=0;points=[];" parent="9cUkJG0n4awL6qod9hBZ-15" vertex="1" connectable="0">
          <mxGeometry x="-0.05" relative="1" as="geometry">
            <mxPoint as="offset" />
          </mxGeometry>
        </mxCell>
        <mxCell id="9cUkJG0n4awL6qod9hBZ-12" value="constructor" style="rounded=1;whiteSpace=wrap;html=1;" parent="WIyWlLk6GJQsqaUBKTNV-1" vertex="1">
          <mxGeometry x="210" y="300" width="90" height="40" as="geometry" />
        </mxCell>
        <mxCell id="9cUkJG0n4awL6qod9hBZ-13" value="constructor" style="rounded=1;whiteSpace=wrap;html=1;" parent="WIyWlLk6GJQsqaUBKTNV-1" vertex="1">
          <mxGeometry x="210" y="180" width="90" height="40" as="geometry" />
        </mxCell>
        <mxCell id="9cUkJG0n4awL6qod9hBZ-21" style="edgeStyle=orthogonalEdgeStyle;rounded=0;orthogonalLoop=1;jettySize=auto;html=1;exitX=0.5;exitY=0;exitDx=0;exitDy=0;entryX=0.5;entryY=1;entryDx=0;entryDy=0;endArrow=openThin;endFill=0;" parent="WIyWlLk6GJQsqaUBKTNV-1" source="9cUkJG0n4awL6qod9hBZ-19" target="9cUkJG0n4awL6qod9hBZ-20" edge="1">
          <mxGeometry relative="1" as="geometry" />
        </mxCell>
        <mxCell id="9cUkJG0n4awL6qod9hBZ-22" value="parent,slot" style="edgeLabel;html=1;align=center;verticalAlign=middle;resizable=0;points=[];" parent="9cUkJG0n4awL6qod9hBZ-21" vertex="1" connectable="0">
          <mxGeometry relative="1" as="geometry">
            <mxPoint as="offset" />
          </mxGeometry>
        </mxCell>
        <mxCell id="9cUkJG0n4awL6qod9hBZ-34" style="edgeStyle=orthogonalEdgeStyle;rounded=0;orthogonalLoop=1;jettySize=auto;html=1;exitX=1;exitY=0.5;exitDx=0;exitDy=0;entryX=0;entryY=0.5;entryDx=0;entryDy=0;endArrow=openThin;endFill=0;" parent="WIyWlLk6GJQsqaUBKTNV-1" source="9cUkJG0n4awL6qod9hBZ-19" target="9cUkJG0n4awL6qod9hBZ-27" edge="1">
          <mxGeometry relative="1" as="geometry" />
        </mxCell>
        <mxCell id="9cUkJG0n4awL6qod9hBZ-19" value="mount" style="rounded=1;whiteSpace=wrap;html=1;" parent="WIyWlLk6GJQsqaUBKTNV-1" vertex="1">
          <mxGeometry x="361" y="300" width="90" height="40" as="geometry" />
        </mxCell>
        <mxCell id="9cUkJG0n4awL6qod9hBZ-20" value="mount" style="rounded=1;whiteSpace=wrap;html=1;" parent="WIyWlLk6GJQsqaUBKTNV-1" vertex="1">
          <mxGeometry x="361" y="180" width="90" height="40" as="geometry" />
        </mxCell>
        <mxCell id="9cUkJG0n4awL6qod9hBZ-25" value="" style="shape=flexArrow;endArrow=classic;html=1;rounded=0;" parent="WIyWlLk6GJQsqaUBKTNV-1" edge="1">
          <mxGeometry width="50" height="50" relative="1" as="geometry">
            <mxPoint x="155" y="439.5" as="sourcePoint" />
            <mxPoint x="195" y="439.5" as="targetPoint" />
          </mxGeometry>
        </mxCell>
        <mxCell id="9cUkJG0n4awL6qod9hBZ-29" style="edgeStyle=orthogonalEdgeStyle;rounded=0;orthogonalLoop=1;jettySize=auto;html=1;exitX=1;exitY=0.5;exitDx=0;exitDy=0;entryX=0;entryY=0.5;entryDx=0;entryDy=0;endArrow=openThin;endFill=0;" parent="WIyWlLk6GJQsqaUBKTNV-1" source="9cUkJG0n4awL6qod9hBZ-27" target="9cUkJG0n4awL6qod9hBZ-28" edge="1">
          <mxGeometry relative="1" as="geometry" />
        </mxCell>
        <mxCell id="9cUkJG0n4awL6qod9hBZ-27" value="_firstBuild" style="rounded=1;whiteSpace=wrap;html=1;" parent="WIyWlLk6GJQsqaUBKTNV-1" vertex="1">
          <mxGeometry x="510" y="300" width="90" height="40" as="geometry" />
        </mxCell>
        <mxCell id="9cUkJG0n4awL6qod9hBZ-31" style="edgeStyle=orthogonalEdgeStyle;rounded=0;orthogonalLoop=1;jettySize=auto;html=1;exitX=1;exitY=0.5;exitDx=0;exitDy=0;entryX=0;entryY=0.5;entryDx=0;entryDy=0;endArrow=openThin;endFill=0;" parent="WIyWlLk6GJQsqaUBKTNV-1" source="9cUkJG0n4awL6qod9hBZ-28" target="9cUkJG0n4awL6qod9hBZ-30" edge="1">
          <mxGeometry relative="1" as="geometry" />
        </mxCell>
        <mxCell id="9cUkJG0n4awL6qod9hBZ-28" value="rebuild" style="rounded=1;whiteSpace=wrap;html=1;" parent="WIyWlLk6GJQsqaUBKTNV-1" vertex="1">
          <mxGeometry x="680" y="180" width="90" height="40" as="geometry" />
        </mxCell>
        <mxCell id="9cUkJG0n4awL6qod9hBZ-33" style="edgeStyle=orthogonalEdgeStyle;rounded=0;orthogonalLoop=1;jettySize=auto;html=1;exitX=1;exitY=0.5;exitDx=0;exitDy=0;entryX=0;entryY=0.5;entryDx=0;entryDy=0;endArrow=openThin;endFill=0;" parent="WIyWlLk6GJQsqaUBKTNV-1" source="9cUkJG0n4awL6qod9hBZ-30" target="9cUkJG0n4awL6qod9hBZ-32" edge="1">
          <mxGeometry relative="1" as="geometry" />
        </mxCell>
        <mxCell id="9cUkJG0n4awL6qod9hBZ-30" value="performRebuild" style="rounded=1;whiteSpace=wrap;html=1;" parent="WIyWlLk6GJQsqaUBKTNV-1" vertex="1">
          <mxGeometry x="850" y="300" width="90" height="40" as="geometry" />
        </mxCell>
        <mxCell id="mk55wQE1P58tn3SGSSxu-1" style="edgeStyle=orthogonalEdgeStyle;rounded=0;orthogonalLoop=1;jettySize=auto;html=1;exitX=1;exitY=0.5;exitDx=0;exitDy=0;entryX=0;entryY=0.5;entryDx=0;entryDy=0;" parent="WIyWlLk6GJQsqaUBKTNV-1" source="9cUkJG0n4awL6qod9hBZ-32" target="mk55wQE1P58tn3SGSSxu-0" edge="1">
          <mxGeometry relative="1" as="geometry" />
        </mxCell>
        <mxCell id="9cUkJG0n4awL6qod9hBZ-32" value="updateChild" style="rounded=1;whiteSpace=wrap;html=1;" parent="WIyWlLk6GJQsqaUBKTNV-1" vertex="1">
          <mxGeometry x="1000" y="180" width="90" height="40" as="geometry" />
        </mxCell>
        <mxCell id="9cUkJG0n4awL6qod9hBZ-35" value="mount" style="text;html=1;strokeColor=none;fillColor=none;align=center;verticalAlign=middle;whiteSpace=wrap;rounded=0;" parent="WIyWlLk6GJQsqaUBKTNV-1" vertex="1">
          <mxGeometry x="730" y="490" width="60" height="30" as="geometry" />
        </mxCell>
        <mxCell id="mk55wQE1P58tn3SGSSxu-0" value="inflateWidget" style="rounded=1;whiteSpace=wrap;html=1;" parent="WIyWlLk6GJQsqaUBKTNV-1" vertex="1">
          <mxGeometry x="1130" y="180" width="90" height="40" as="geometry" />
        </mxCell>
        <mxCell id="mk55wQE1P58tn3SGSSxu-5" style="edgeStyle=orthogonalEdgeStyle;rounded=0;orthogonalLoop=1;jettySize=auto;html=1;exitX=1;exitY=0.5;exitDx=0;exitDy=0;entryX=0;entryY=0.5;entryDx=0;entryDy=0;" parent="WIyWlLk6GJQsqaUBKTNV-1" source="mk55wQE1P58tn3SGSSxu-2" target="mk55wQE1P58tn3SGSSxu-3" edge="1">
          <mxGeometry relative="1" as="geometry" />
        </mxCell>
        <mxCell id="mk55wQE1P58tn3SGSSxu-2" value="rebuild" style="rounded=1;whiteSpace=wrap;html=1;" parent="WIyWlLk6GJQsqaUBKTNV-1" vertex="1">
          <mxGeometry x="1270" y="180" width="90" height="40" as="geometry" />
        </mxCell>
        <mxCell id="mk55wQE1P58tn3SGSSxu-6" style="edgeStyle=orthogonalEdgeStyle;rounded=0;orthogonalLoop=1;jettySize=auto;html=1;exitX=1;exitY=0.5;exitDx=0;exitDy=0;entryX=0;entryY=0.5;entryDx=0;entryDy=0;" parent="WIyWlLk6GJQsqaUBKTNV-1" source="mk55wQE1P58tn3SGSSxu-3" target="mk55wQE1P58tn3SGSSxu-4" edge="1">
          <mxGeometry relative="1" as="geometry" />
        </mxCell>
        <mxCell id="mk55wQE1P58tn3SGSSxu-3" value="performRebuild" style="rounded=1;whiteSpace=wrap;html=1;" parent="WIyWlLk6GJQsqaUBKTNV-1" vertex="1">
          <mxGeometry x="1430" y="300" width="90" height="40" as="geometry" />
        </mxCell>
        <mxCell id="mk55wQE1P58tn3SGSSxu-8" style="edgeStyle=orthogonalEdgeStyle;rounded=0;orthogonalLoop=1;jettySize=auto;html=1;exitX=1;exitY=0.5;exitDx=0;exitDy=0;entryX=0;entryY=0.5;entryDx=0;entryDy=0;" parent="WIyWlLk6GJQsqaUBKTNV-1" source="mk55wQE1P58tn3SGSSxu-4" target="mk55wQE1P58tn3SGSSxu-7" edge="1">
          <mxGeometry relative="1" as="geometry" />
        </mxCell>
        <mxCell id="mk55wQE1P58tn3SGSSxu-4" value="updateChild" style="rounded=1;whiteSpace=wrap;html=1;" parent="WIyWlLk6GJQsqaUBKTNV-1" vertex="1">
          <mxGeometry x="1590" y="180" width="90" height="40" as="geometry" />
        </mxCell>
        <mxCell id="nsNBMzfNjHoRp4rMEoGC-2" style="edgeStyle=orthogonalEdgeStyle;rounded=0;orthogonalLoop=1;jettySize=auto;html=1;exitX=0.5;exitY=0;exitDx=0;exitDy=0;entryX=0.5;entryY=1;entryDx=0;entryDy=0;" edge="1" parent="WIyWlLk6GJQsqaUBKTNV-1" source="mk55wQE1P58tn3SGSSxu-7" target="mk55wQE1P58tn3SGSSxu-9">
          <mxGeometry relative="1" as="geometry" />
        </mxCell>
        <mxCell id="mk55wQE1P58tn3SGSSxu-7" value="update" style="rounded=1;whiteSpace=wrap;html=1;" parent="WIyWlLk6GJQsqaUBKTNV-1" vertex="1">
          <mxGeometry x="1755" y="300" width="90" height="40" as="geometry" />
        </mxCell>
        <mxCell id="mk55wQE1P58tn3SGSSxu-9" value="update" style="rounded=1;whiteSpace=wrap;html=1;" parent="WIyWlLk6GJQsqaUBKTNV-1" vertex="1">
          <mxGeometry x="1755" y="180" width="90" height="40" as="geometry" />
        </mxCell>
        <mxCell id="nsNBMzfNjHoRp4rMEoGC-4" value="update" style="text;html=1;strokeColor=none;fillColor=none;align=center;verticalAlign=middle;whiteSpace=wrap;rounded=0;" vertex="1" parent="WIyWlLk6GJQsqaUBKTNV-1">
          <mxGeometry x="1550" y="490" width="60" height="30" as="geometry" />
        </mxCell>
        <mxCell id="nsNBMzfNjHoRp4rMEoGC-5" value="Text" style="text;html=1;strokeColor=none;fillColor=none;align=center;verticalAlign=middle;whiteSpace=wrap;rounded=0;" vertex="1" parent="WIyWlLk6GJQsqaUBKTNV-1">
          <mxGeometry x="2030" y="480" width="60" height="30" as="geometry" />
        </mxCell>
      </root>
    </mxGraphModel>
  </diagram>
</mxfile>
